<mxfile host="app.diagrams.net" agent="Mozilla/5.0 (Windows NT 10.0; Win64; x64) AppleWebKit/537.36 (KHTML, like Gecko) Chrome/134.0.0.0 Safari/537.36" version="26.1.0">
  <diagram name="Página-1" id="Kn73AWZQKbiXPiG9weW3">
    <mxGraphModel dx="2807" dy="2082" grid="1" gridSize="10" guides="1" tooltips="1" connect="1" arrows="1" fold="1" page="1" pageScale="1" pageWidth="827" pageHeight="1169" math="0" shadow="0">
      <root>
        <mxCell id="0" />
        <mxCell id="1" parent="0" />
        <mxCell id="RajLe-0W4mhnXS3GAFaM-1" value="Lanas" style="rounded=0;whiteSpace=wrap;html=1;labelBackgroundColor=none;fillColor=#FAD9D5;strokeColor=#D0CEE2;fontColor=#1A1A1A;" vertex="1" parent="1">
          <mxGeometry x="420" y="-150" width="120" height="60" as="geometry" />
        </mxCell>
        <mxCell id="RajLe-0W4mhnXS3GAFaM-2" value="Cliente" style="rounded=0;whiteSpace=wrap;html=1;labelBackgroundColor=none;fillColor=#FAD9D5;strokeColor=#D0CEE2;fontColor=#1A1A1A;" vertex="1" parent="1">
          <mxGeometry x="900" y="-150" width="120" height="60" as="geometry" />
        </mxCell>
        <mxCell id="RajLe-0W4mhnXS3GAFaM-3" value="Ventas" style="rounded=0;whiteSpace=wrap;html=1;labelBackgroundColor=none;fillColor=#FAD9D5;strokeColor=#D0CEE2;fontColor=#1A1A1A;" vertex="1" parent="1">
          <mxGeometry x="-40" y="170" width="120" height="60" as="geometry" />
        </mxCell>
        <mxCell id="RajLe-0W4mhnXS3GAFaM-4" value="Detalle de venta" style="rounded=0;whiteSpace=wrap;html=1;labelBackgroundColor=none;fillColor=#FAD9D5;strokeColor=#D0CEE2;fontColor=#1A1A1A;" vertex="1" parent="1">
          <mxGeometry x="420" y="170" width="120" height="60" as="geometry" />
        </mxCell>
        <mxCell id="RajLe-0W4mhnXS3GAFaM-5" value="Inventario" style="rounded=0;whiteSpace=wrap;html=1;labelBackgroundColor=none;fillColor=#FAD9D5;strokeColor=#D0CEE2;fontColor=#1A1A1A;" vertex="1" parent="1">
          <mxGeometry x="20" y="-150" width="120" height="60" as="geometry" />
        </mxCell>
        <mxCell id="RajLe-0W4mhnXS3GAFaM-9" value="Material" style="ellipse;whiteSpace=wrap;html=1;labelBackgroundColor=none;fillColor=#FAD9D5;strokeColor=#D0CEE2;fontColor=#1A1A1A;" vertex="1" parent="1">
          <mxGeometry x="430" y="-450" width="120" height="80" as="geometry" />
        </mxCell>
        <mxCell id="RajLe-0W4mhnXS3GAFaM-10" value="Color" style="ellipse;whiteSpace=wrap;html=1;labelBackgroundColor=none;fillColor=#FAD9D5;strokeColor=#D0CEE2;fontColor=#1A1A1A;" vertex="1" parent="1">
          <mxGeometry x="294" y="-400" width="120" height="80" as="geometry" />
        </mxCell>
        <mxCell id="RajLe-0W4mhnXS3GAFaM-11" value="Nombre" style="ellipse;whiteSpace=wrap;html=1;labelBackgroundColor=none;fillColor=#FAD9D5;strokeColor=#D0CEE2;fontColor=#1A1A1A;" vertex="1" parent="1">
          <mxGeometry x="220" y="-290" width="120" height="80" as="geometry" />
        </mxCell>
        <mxCell id="RajLe-0W4mhnXS3GAFaM-12" value="Peso" style="ellipse;whiteSpace=wrap;html=1;labelBackgroundColor=none;fillColor=#FAD9D5;strokeColor=#D0CEE2;fontColor=#1A1A1A;" vertex="1" parent="1">
          <mxGeometry x="560" y="-390" width="120" height="80" as="geometry" />
        </mxCell>
        <mxCell id="RajLe-0W4mhnXS3GAFaM-13" value="Precio" style="ellipse;whiteSpace=wrap;html=1;labelBackgroundColor=none;fillColor=#FAD9D5;strokeColor=#D0CEE2;fontColor=#1A1A1A;" vertex="1" parent="1">
          <mxGeometry x="630" y="-280" width="120" height="80" as="geometry" />
        </mxCell>
        <mxCell id="RajLe-0W4mhnXS3GAFaM-15" value="Fecha de actualización" style="ellipse;whiteSpace=wrap;html=1;labelBackgroundColor=none;fillColor=#FAD9D5;strokeColor=#D0CEE2;fontColor=#1A1A1A;" vertex="1" parent="1">
          <mxGeometry x="-170" y="-150" width="120" height="80" as="geometry" />
        </mxCell>
        <mxCell id="RajLe-0W4mhnXS3GAFaM-16" value="Cantidad disponible" style="ellipse;whiteSpace=wrap;html=1;labelBackgroundColor=none;fillColor=#FAD9D5;strokeColor=#D0CEE2;fontColor=#1A1A1A;" vertex="1" parent="1">
          <mxGeometry x="-90" y="-280" width="120" height="80" as="geometry" />
        </mxCell>
        <mxCell id="RajLe-0W4mhnXS3GAFaM-17" value="Nombre" style="ellipse;whiteSpace=wrap;html=1;labelBackgroundColor=none;fillColor=#FAD9D5;strokeColor=#D0CEE2;fontColor=#1A1A1A;" vertex="1" parent="1">
          <mxGeometry x="900" y="-320" width="120" height="80" as="geometry" />
        </mxCell>
        <mxCell id="RajLe-0W4mhnXS3GAFaM-18" value="Apellido" style="ellipse;whiteSpace=wrap;html=1;labelBackgroundColor=none;fillColor=#FAD9D5;strokeColor=#D0CEE2;fontColor=#1A1A1A;" vertex="1" parent="1">
          <mxGeometry x="1060" y="-350" width="120" height="80" as="geometry" />
        </mxCell>
        <mxCell id="RajLe-0W4mhnXS3GAFaM-19" value="Dirección" style="ellipse;whiteSpace=wrap;html=1;labelBackgroundColor=none;fillColor=#FAD9D5;strokeColor=#D0CEE2;fontColor=#1A1A1A;" vertex="1" parent="1">
          <mxGeometry x="1160" y="-50" width="120" height="80" as="geometry" />
        </mxCell>
        <mxCell id="RajLe-0W4mhnXS3GAFaM-20" value="Teléfono" style="ellipse;whiteSpace=wrap;html=1;labelBackgroundColor=none;fillColor=#FAD9D5;strokeColor=#D0CEE2;fontColor=#1A1A1A;" vertex="1" parent="1">
          <mxGeometry x="1170" y="-260" width="120" height="80" as="geometry" />
        </mxCell>
        <mxCell id="RajLe-0W4mhnXS3GAFaM-21" value="Correo electrónico" style="ellipse;whiteSpace=wrap;html=1;labelBackgroundColor=none;fillColor=#FAD9D5;strokeColor=#D0CEE2;fontColor=#1A1A1A;" vertex="1" parent="1">
          <mxGeometry x="1190" y="-160" width="120" height="80" as="geometry" />
        </mxCell>
        <mxCell id="RajLe-0W4mhnXS3GAFaM-22" value="Total" style="ellipse;whiteSpace=wrap;html=1;labelBackgroundColor=none;fillColor=#FAD9D5;strokeColor=#D0CEE2;fontColor=#1A1A1A;" vertex="1" parent="1">
          <mxGeometry x="60" y="300" width="120" height="80" as="geometry" />
        </mxCell>
        <mxCell id="RajLe-0W4mhnXS3GAFaM-23" value="Fecha de venta" style="ellipse;whiteSpace=wrap;html=1;labelBackgroundColor=none;fillColor=#FAD9D5;strokeColor=#D0CEE2;fontColor=#1A1A1A;" vertex="1" parent="1">
          <mxGeometry x="-120" y="300" width="120" height="80" as="geometry" />
        </mxCell>
        <mxCell id="RajLe-0W4mhnXS3GAFaM-24" value="Cantidad" style="ellipse;whiteSpace=wrap;html=1;labelBackgroundColor=none;fillColor=#FAD9D5;strokeColor=#D0CEE2;fontColor=#1A1A1A;" vertex="1" parent="1">
          <mxGeometry x="640" y="140" width="120" height="80" as="geometry" />
        </mxCell>
        <mxCell id="RajLe-0W4mhnXS3GAFaM-25" value="Precio unitario" style="ellipse;whiteSpace=wrap;html=1;labelBackgroundColor=none;fillColor=#FAD9D5;strokeColor=#D0CEE2;fontColor=#1A1A1A;" vertex="1" parent="1">
          <mxGeometry x="570" y="250" width="120" height="80" as="geometry" />
        </mxCell>
        <mxCell id="RajLe-0W4mhnXS3GAFaM-26" value="Subtotal" style="ellipse;whiteSpace=wrap;html=1;labelBackgroundColor=none;fillColor=#FAD9D5;strokeColor=#D0CEE2;fontColor=#1A1A1A;" vertex="1" parent="1">
          <mxGeometry x="420" y="320" width="120" height="80" as="geometry" />
        </mxCell>
        <mxCell id="RajLe-0W4mhnXS3GAFaM-31" value="" style="endArrow=none;html=1;rounded=0;entryX=1;entryY=1;entryDx=0;entryDy=0;exitX=0;exitY=0.25;exitDx=0;exitDy=0;labelBackgroundColor=none;strokeColor=#09555B;fontColor=default;" edge="1" parent="1" source="RajLe-0W4mhnXS3GAFaM-1" target="RajLe-0W4mhnXS3GAFaM-11">
          <mxGeometry width="50" height="50" relative="1" as="geometry">
            <mxPoint x="530" y="-110" as="sourcePoint" />
            <mxPoint x="580" y="-160" as="targetPoint" />
          </mxGeometry>
        </mxCell>
        <mxCell id="RajLe-0W4mhnXS3GAFaM-32" value="" style="endArrow=none;html=1;rounded=0;entryX=0.5;entryY=1;entryDx=0;entryDy=0;exitX=0.25;exitY=0;exitDx=0;exitDy=0;labelBackgroundColor=none;strokeColor=#09555B;fontColor=default;" edge="1" parent="1" source="RajLe-0W4mhnXS3GAFaM-1" target="RajLe-0W4mhnXS3GAFaM-10">
          <mxGeometry width="50" height="50" relative="1" as="geometry">
            <mxPoint x="530" y="-110" as="sourcePoint" />
            <mxPoint x="580" y="-160" as="targetPoint" />
          </mxGeometry>
        </mxCell>
        <mxCell id="RajLe-0W4mhnXS3GAFaM-33" value="" style="endArrow=none;html=1;rounded=0;entryX=0.5;entryY=1;entryDx=0;entryDy=0;exitX=0.5;exitY=0;exitDx=0;exitDy=0;labelBackgroundColor=none;strokeColor=#09555B;fontColor=default;" edge="1" parent="1" source="RajLe-0W4mhnXS3GAFaM-1" target="RajLe-0W4mhnXS3GAFaM-9">
          <mxGeometry width="50" height="50" relative="1" as="geometry">
            <mxPoint x="530" y="-110" as="sourcePoint" />
            <mxPoint x="580" y="-160" as="targetPoint" />
          </mxGeometry>
        </mxCell>
        <mxCell id="RajLe-0W4mhnXS3GAFaM-34" value="" style="endArrow=none;html=1;rounded=0;entryX=0;entryY=1;entryDx=0;entryDy=0;exitX=0.75;exitY=0;exitDx=0;exitDy=0;labelBackgroundColor=none;strokeColor=#09555B;fontColor=default;" edge="1" parent="1" source="RajLe-0W4mhnXS3GAFaM-1" target="RajLe-0W4mhnXS3GAFaM-12">
          <mxGeometry width="50" height="50" relative="1" as="geometry">
            <mxPoint x="530" y="-110" as="sourcePoint" />
            <mxPoint x="580" y="-160" as="targetPoint" />
          </mxGeometry>
        </mxCell>
        <mxCell id="RajLe-0W4mhnXS3GAFaM-35" value="" style="endArrow=none;html=1;rounded=0;entryX=0;entryY=0.5;entryDx=0;entryDy=0;exitX=1;exitY=0;exitDx=0;exitDy=0;labelBackgroundColor=none;strokeColor=#09555B;fontColor=default;" edge="1" parent="1" source="RajLe-0W4mhnXS3GAFaM-1" target="RajLe-0W4mhnXS3GAFaM-13">
          <mxGeometry width="50" height="50" relative="1" as="geometry">
            <mxPoint x="530" y="-110" as="sourcePoint" />
            <mxPoint x="580" y="-160" as="targetPoint" />
          </mxGeometry>
        </mxCell>
        <mxCell id="RajLe-0W4mhnXS3GAFaM-36" value="" style="endArrow=none;html=1;rounded=0;entryX=1;entryY=0.25;entryDx=0;entryDy=0;exitX=0;exitY=0.5;exitDx=0;exitDy=0;labelBackgroundColor=none;strokeColor=#09555B;fontColor=default;" edge="1" parent="1" source="RajLe-0W4mhnXS3GAFaM-24" target="RajLe-0W4mhnXS3GAFaM-4">
          <mxGeometry width="50" height="50" relative="1" as="geometry">
            <mxPoint x="580" y="330" as="sourcePoint" />
            <mxPoint x="630" y="280" as="targetPoint" />
          </mxGeometry>
        </mxCell>
        <mxCell id="RajLe-0W4mhnXS3GAFaM-37" value="" style="endArrow=none;html=1;rounded=0;entryX=1;entryY=1;entryDx=0;entryDy=0;exitX=0;exitY=0;exitDx=0;exitDy=0;labelBackgroundColor=none;strokeColor=#09555B;fontColor=default;" edge="1" parent="1" source="RajLe-0W4mhnXS3GAFaM-25" target="RajLe-0W4mhnXS3GAFaM-4">
          <mxGeometry width="50" height="50" relative="1" as="geometry">
            <mxPoint x="580" y="330" as="sourcePoint" />
            <mxPoint x="630" y="280" as="targetPoint" />
          </mxGeometry>
        </mxCell>
        <mxCell id="RajLe-0W4mhnXS3GAFaM-38" value="" style="endArrow=none;html=1;rounded=0;entryX=0.5;entryY=1;entryDx=0;entryDy=0;exitX=0.5;exitY=0;exitDx=0;exitDy=0;labelBackgroundColor=none;strokeColor=#09555B;fontColor=default;" edge="1" parent="1" source="RajLe-0W4mhnXS3GAFaM-26" target="RajLe-0W4mhnXS3GAFaM-4">
          <mxGeometry width="50" height="50" relative="1" as="geometry">
            <mxPoint x="580" y="330" as="sourcePoint" />
            <mxPoint x="630" y="280" as="targetPoint" />
          </mxGeometry>
        </mxCell>
        <mxCell id="RajLe-0W4mhnXS3GAFaM-39" value="" style="endArrow=none;html=1;rounded=0;entryX=0.75;entryY=1;entryDx=0;entryDy=0;exitX=0.5;exitY=0;exitDx=0;exitDy=0;labelBackgroundColor=none;strokeColor=#09555B;fontColor=default;" edge="1" parent="1" source="RajLe-0W4mhnXS3GAFaM-22" target="RajLe-0W4mhnXS3GAFaM-3">
          <mxGeometry width="50" height="50" relative="1" as="geometry">
            <mxPoint x="20" y="350" as="sourcePoint" />
            <mxPoint x="70" y="300" as="targetPoint" />
          </mxGeometry>
        </mxCell>
        <mxCell id="RajLe-0W4mhnXS3GAFaM-40" value="" style="endArrow=none;html=1;rounded=0;entryX=0.25;entryY=1;entryDx=0;entryDy=0;labelBackgroundColor=none;strokeColor=#09555B;fontColor=default;" edge="1" parent="1" source="RajLe-0W4mhnXS3GAFaM-23" target="RajLe-0W4mhnXS3GAFaM-3">
          <mxGeometry width="50" height="50" relative="1" as="geometry">
            <mxPoint x="20" y="350" as="sourcePoint" />
            <mxPoint x="70" y="300" as="targetPoint" />
          </mxGeometry>
        </mxCell>
        <mxCell id="RajLe-0W4mhnXS3GAFaM-41" value="" style="endArrow=none;html=1;rounded=0;entryX=0.25;entryY=0;entryDx=0;entryDy=0;exitX=1;exitY=1;exitDx=0;exitDy=0;labelBackgroundColor=none;strokeColor=#09555B;fontColor=default;" edge="1" parent="1" source="RajLe-0W4mhnXS3GAFaM-16" target="RajLe-0W4mhnXS3GAFaM-5">
          <mxGeometry width="50" height="50" relative="1" as="geometry">
            <mxPoint x="20" y="-150" as="sourcePoint" />
            <mxPoint x="70" y="-200" as="targetPoint" />
          </mxGeometry>
        </mxCell>
        <mxCell id="RajLe-0W4mhnXS3GAFaM-42" value="" style="endArrow=none;html=1;rounded=0;exitX=1;exitY=0.5;exitDx=0;exitDy=0;entryX=0;entryY=0.5;entryDx=0;entryDy=0;labelBackgroundColor=none;strokeColor=#09555B;fontColor=default;" edge="1" parent="1" source="RajLe-0W4mhnXS3GAFaM-15" target="RajLe-0W4mhnXS3GAFaM-5">
          <mxGeometry width="50" height="50" relative="1" as="geometry">
            <mxPoint x="20" y="-150" as="sourcePoint" />
            <mxPoint x="70" y="-200" as="targetPoint" />
          </mxGeometry>
        </mxCell>
        <mxCell id="RajLe-0W4mhnXS3GAFaM-43" value="Pertenecen" style="rhombus;whiteSpace=wrap;html=1;labelBackgroundColor=none;fillColor=#FAD9D5;strokeColor=#D0CEE2;fontColor=#1A1A1A;" vertex="1" parent="1">
          <mxGeometry x="230" y="-145" width="100" height="50" as="geometry" />
        </mxCell>
        <mxCell id="RajLe-0W4mhnXS3GAFaM-44" value="Adquieren" style="rhombus;whiteSpace=wrap;html=1;labelBackgroundColor=none;fillColor=#FAD9D5;strokeColor=#D0CEE2;fontColor=#1A1A1A;" vertex="1" parent="1">
          <mxGeometry x="690" y="-145" width="100" height="50" as="geometry" />
        </mxCell>
        <mxCell id="RajLe-0W4mhnXS3GAFaM-45" value="Poseen" style="rhombus;whiteSpace=wrap;html=1;labelBackgroundColor=none;fillColor=#FAD9D5;strokeColor=#D0CEE2;fontColor=#1A1A1A;" vertex="1" parent="1">
          <mxGeometry x="430" y="10" width="100" height="50" as="geometry" />
        </mxCell>
        <mxCell id="RajLe-0W4mhnXS3GAFaM-46" value="Poseen" style="rhombus;whiteSpace=wrap;html=1;labelBackgroundColor=none;fillColor=#FAD9D5;strokeColor=#D0CEE2;fontColor=#1A1A1A;" vertex="1" parent="1">
          <mxGeometry x="210" y="175" width="100" height="50" as="geometry" />
        </mxCell>
        <mxCell id="RajLe-0W4mhnXS3GAFaM-47" value="" style="endArrow=none;html=1;rounded=0;entryX=1;entryY=0.5;entryDx=0;entryDy=0;exitX=0;exitY=0.5;exitDx=0;exitDy=0;labelBackgroundColor=none;strokeColor=#09555B;fontColor=default;" edge="1" parent="1" source="RajLe-0W4mhnXS3GAFaM-43" target="RajLe-0W4mhnXS3GAFaM-5">
          <mxGeometry width="50" height="50" relative="1" as="geometry">
            <mxPoint x="250" y="100" as="sourcePoint" />
            <mxPoint x="300" y="50" as="targetPoint" />
          </mxGeometry>
        </mxCell>
        <mxCell id="RajLe-0W4mhnXS3GAFaM-48" value="" style="endArrow=none;html=1;rounded=0;entryX=0;entryY=0.5;entryDx=0;entryDy=0;exitX=1;exitY=0.5;exitDx=0;exitDy=0;labelBackgroundColor=none;strokeColor=#09555B;fontColor=default;" edge="1" parent="1" source="RajLe-0W4mhnXS3GAFaM-43" target="RajLe-0W4mhnXS3GAFaM-1">
          <mxGeometry width="50" height="50" relative="1" as="geometry">
            <mxPoint x="250" y="100" as="sourcePoint" />
            <mxPoint x="300" y="50" as="targetPoint" />
          </mxGeometry>
        </mxCell>
        <mxCell id="RajLe-0W4mhnXS3GAFaM-50" value="" style="endArrow=none;html=1;rounded=0;entryX=1;entryY=0.5;entryDx=0;entryDy=0;exitX=0;exitY=0.5;exitDx=0;exitDy=0;labelBackgroundColor=none;strokeColor=#09555B;fontColor=default;" edge="1" parent="1" source="RajLe-0W4mhnXS3GAFaM-44" target="RajLe-0W4mhnXS3GAFaM-1">
          <mxGeometry width="50" height="50" relative="1" as="geometry">
            <mxPoint x="790" y="100" as="sourcePoint" />
            <mxPoint x="840" y="50" as="targetPoint" />
          </mxGeometry>
        </mxCell>
        <mxCell id="RajLe-0W4mhnXS3GAFaM-51" value="" style="endArrow=none;html=1;rounded=0;entryX=0;entryY=0.5;entryDx=0;entryDy=0;exitX=1;exitY=0.5;exitDx=0;exitDy=0;labelBackgroundColor=none;strokeColor=#09555B;fontColor=default;" edge="1" parent="1" source="RajLe-0W4mhnXS3GAFaM-44" target="RajLe-0W4mhnXS3GAFaM-2">
          <mxGeometry width="50" height="50" relative="1" as="geometry">
            <mxPoint x="700" y="100" as="sourcePoint" />
            <mxPoint x="750" y="50" as="targetPoint" />
          </mxGeometry>
        </mxCell>
        <mxCell id="RajLe-0W4mhnXS3GAFaM-52" value="" style="endArrow=none;html=1;rounded=0;entryX=0.5;entryY=1;entryDx=0;entryDy=0;exitX=0.5;exitY=0;exitDx=0;exitDy=0;labelBackgroundColor=none;strokeColor=#09555B;fontColor=default;" edge="1" parent="1" source="RajLe-0W4mhnXS3GAFaM-45" target="RajLe-0W4mhnXS3GAFaM-1">
          <mxGeometry width="50" height="50" relative="1" as="geometry">
            <mxPoint x="520" y="100" as="sourcePoint" />
            <mxPoint x="570" y="50" as="targetPoint" />
          </mxGeometry>
        </mxCell>
        <mxCell id="RajLe-0W4mhnXS3GAFaM-53" value="" style="endArrow=none;html=1;rounded=0;entryX=0.5;entryY=1;entryDx=0;entryDy=0;exitX=0.5;exitY=0;exitDx=0;exitDy=0;labelBackgroundColor=none;strokeColor=#09555B;fontColor=default;" edge="1" parent="1" source="RajLe-0W4mhnXS3GAFaM-4" target="RajLe-0W4mhnXS3GAFaM-45">
          <mxGeometry width="50" height="50" relative="1" as="geometry">
            <mxPoint x="520" y="100" as="sourcePoint" />
            <mxPoint x="570" y="50" as="targetPoint" />
          </mxGeometry>
        </mxCell>
        <mxCell id="RajLe-0W4mhnXS3GAFaM-54" value="" style="endArrow=none;html=1;rounded=0;entryX=0;entryY=0.5;entryDx=0;entryDy=0;exitX=1;exitY=0.5;exitDx=0;exitDy=0;labelBackgroundColor=none;strokeColor=#09555B;fontColor=default;" edge="1" parent="1" source="RajLe-0W4mhnXS3GAFaM-46" target="RajLe-0W4mhnXS3GAFaM-4">
          <mxGeometry width="50" height="50" relative="1" as="geometry">
            <mxPoint x="240" y="160" as="sourcePoint" />
            <mxPoint x="290" y="110" as="targetPoint" />
          </mxGeometry>
        </mxCell>
        <mxCell id="RajLe-0W4mhnXS3GAFaM-55" value="" style="endArrow=none;html=1;rounded=0;entryX=0;entryY=0.5;entryDx=0;entryDy=0;exitX=1;exitY=0.5;exitDx=0;exitDy=0;labelBackgroundColor=none;strokeColor=#09555B;fontColor=default;" edge="1" parent="1" source="RajLe-0W4mhnXS3GAFaM-3" target="RajLe-0W4mhnXS3GAFaM-46">
          <mxGeometry width="50" height="50" relative="1" as="geometry">
            <mxPoint x="240" y="160" as="sourcePoint" />
            <mxPoint x="290" y="110" as="targetPoint" />
          </mxGeometry>
        </mxCell>
        <mxCell id="RajLe-0W4mhnXS3GAFaM-56" value="" style="endArrow=none;html=1;rounded=0;entryX=0.5;entryY=1;entryDx=0;entryDy=0;exitX=0.25;exitY=0;exitDx=0;exitDy=0;labelBackgroundColor=none;strokeColor=#09555B;fontColor=default;" edge="1" parent="1" source="RajLe-0W4mhnXS3GAFaM-2" target="RajLe-0W4mhnXS3GAFaM-17">
          <mxGeometry width="50" height="50" relative="1" as="geometry">
            <mxPoint x="810" y="80" as="sourcePoint" />
            <mxPoint x="860" y="30" as="targetPoint" />
          </mxGeometry>
        </mxCell>
        <mxCell id="RajLe-0W4mhnXS3GAFaM-57" value="" style="endArrow=none;html=1;rounded=0;entryX=0;entryY=1;entryDx=0;entryDy=0;exitX=0.5;exitY=0;exitDx=0;exitDy=0;labelBackgroundColor=none;strokeColor=#09555B;fontColor=default;" edge="1" parent="1" source="RajLe-0W4mhnXS3GAFaM-2" target="RajLe-0W4mhnXS3GAFaM-18">
          <mxGeometry width="50" height="50" relative="1" as="geometry">
            <mxPoint x="810" y="80" as="sourcePoint" />
            <mxPoint x="860" y="30" as="targetPoint" />
          </mxGeometry>
        </mxCell>
        <mxCell id="RajLe-0W4mhnXS3GAFaM-58" value="" style="endArrow=none;html=1;rounded=0;entryX=0;entryY=0.5;entryDx=0;entryDy=0;exitX=1;exitY=0;exitDx=0;exitDy=0;labelBackgroundColor=none;strokeColor=#09555B;fontColor=default;" edge="1" parent="1" source="RajLe-0W4mhnXS3GAFaM-2" target="RajLe-0W4mhnXS3GAFaM-20">
          <mxGeometry width="50" height="50" relative="1" as="geometry">
            <mxPoint x="810" y="80" as="sourcePoint" />
            <mxPoint x="860" y="30" as="targetPoint" />
          </mxGeometry>
        </mxCell>
        <mxCell id="RajLe-0W4mhnXS3GAFaM-59" value="" style="endArrow=none;html=1;rounded=0;entryX=0;entryY=0.5;entryDx=0;entryDy=0;exitX=1;exitY=0.5;exitDx=0;exitDy=0;labelBackgroundColor=none;strokeColor=#09555B;fontColor=default;" edge="1" parent="1" source="RajLe-0W4mhnXS3GAFaM-2" target="RajLe-0W4mhnXS3GAFaM-21">
          <mxGeometry width="50" height="50" relative="1" as="geometry">
            <mxPoint x="810" y="80" as="sourcePoint" />
            <mxPoint x="860" y="30" as="targetPoint" />
          </mxGeometry>
        </mxCell>
        <mxCell id="RajLe-0W4mhnXS3GAFaM-60" value="" style="endArrow=none;html=1;rounded=0;entryX=0;entryY=0.5;entryDx=0;entryDy=0;exitX=1;exitY=1;exitDx=0;exitDy=0;labelBackgroundColor=none;strokeColor=#09555B;fontColor=default;" edge="1" parent="1" source="RajLe-0W4mhnXS3GAFaM-2" target="RajLe-0W4mhnXS3GAFaM-19">
          <mxGeometry width="50" height="50" relative="1" as="geometry">
            <mxPoint x="810" y="80" as="sourcePoint" />
            <mxPoint x="860" y="30" as="targetPoint" />
          </mxGeometry>
        </mxCell>
        <mxCell id="RajLe-0W4mhnXS3GAFaM-61" value="N:M" style="text;html=1;align=center;verticalAlign=middle;resizable=0;points=[];autosize=1;strokeColor=none;fillColor=none;labelBackgroundColor=none;fontColor=#1A1A1A;" vertex="1" parent="1">
          <mxGeometry x="375" y="-142" width="50" height="30" as="geometry" />
        </mxCell>
        <mxCell id="RajLe-0W4mhnXS3GAFaM-62" value="1:1" style="text;html=1;align=center;verticalAlign=middle;resizable=0;points=[];autosize=1;strokeColor=none;fillColor=none;labelBackgroundColor=none;fontColor=#1A1A1A;" vertex="1" parent="1">
          <mxGeometry x="130" y="-142" width="40" height="30" as="geometry" />
        </mxCell>
        <mxCell id="RajLe-0W4mhnXS3GAFaM-63" value="1:N" style="text;html=1;align=center;verticalAlign=middle;resizable=0;points=[];autosize=1;strokeColor=none;fillColor=none;labelBackgroundColor=none;fontColor=#1A1A1A;" vertex="1" parent="1">
          <mxGeometry x="260" y="-172" width="40" height="30" as="geometry" />
        </mxCell>
        <mxCell id="RajLe-0W4mhnXS3GAFaM-64" value="1:N" style="text;html=1;align=center;verticalAlign=middle;resizable=0;points=[];autosize=1;strokeColor=none;fillColor=none;labelBackgroundColor=none;fontColor=#1A1A1A;" vertex="1" parent="1">
          <mxGeometry x="540" y="-145" width="40" height="30" as="geometry" />
        </mxCell>
        <mxCell id="RajLe-0W4mhnXS3GAFaM-65" value="1:N" style="text;html=1;align=center;verticalAlign=middle;resizable=0;points=[];autosize=1;strokeColor=none;fillColor=none;labelBackgroundColor=none;fontColor=#1A1A1A;" vertex="1" parent="1">
          <mxGeometry x="860" y="-142" width="40" height="30" as="geometry" />
        </mxCell>
        <mxCell id="RajLe-0W4mhnXS3GAFaM-66" value="N:M" style="text;html=1;align=center;verticalAlign=middle;resizable=0;points=[];autosize=1;strokeColor=none;fillColor=none;labelBackgroundColor=none;fontColor=#1A1A1A;" vertex="1" parent="1">
          <mxGeometry x="715" y="-172" width="50" height="30" as="geometry" />
        </mxCell>
        <mxCell id="RajLe-0W4mhnXS3GAFaM-67" value="1:N" style="text;html=1;align=center;verticalAlign=middle;resizable=0;points=[];autosize=1;strokeColor=none;fillColor=none;labelBackgroundColor=none;fontColor=#1A1A1A;" vertex="1" parent="1">
          <mxGeometry x="480" y="-92" width="40" height="30" as="geometry" />
        </mxCell>
        <mxCell id="RajLe-0W4mhnXS3GAFaM-68" value="1:1" style="text;html=1;align=center;verticalAlign=middle;resizable=0;points=[];autosize=1;strokeColor=none;fillColor=none;labelBackgroundColor=none;fontColor=#1A1A1A;" vertex="1" parent="1">
          <mxGeometry x="470" y="145" width="40" height="30" as="geometry" />
        </mxCell>
        <mxCell id="RajLe-0W4mhnXS3GAFaM-69" value="N:1" style="text;html=1;align=center;verticalAlign=middle;resizable=0;points=[];autosize=1;strokeColor=none;fillColor=none;labelBackgroundColor=none;fontColor=#1A1A1A;" vertex="1" parent="1">
          <mxGeometry x="530" y="18" width="40" height="30" as="geometry" />
        </mxCell>
        <mxCell id="RajLe-0W4mhnXS3GAFaM-70" value="1:N" style="text;html=1;align=center;verticalAlign=middle;resizable=0;points=[];autosize=1;strokeColor=none;fillColor=none;labelBackgroundColor=none;fontColor=#1A1A1A;" vertex="1" parent="1">
          <mxGeometry x="70" y="178" width="40" height="30" as="geometry" />
        </mxCell>
        <mxCell id="RajLe-0W4mhnXS3GAFaM-71" value="1:N" style="text;html=1;align=center;verticalAlign=middle;resizable=0;points=[];autosize=1;strokeColor=none;fillColor=none;labelBackgroundColor=none;fontColor=#1A1A1A;" vertex="1" parent="1">
          <mxGeometry x="385" y="175" width="40" height="30" as="geometry" />
        </mxCell>
        <mxCell id="RajLe-0W4mhnXS3GAFaM-72" value="N:M" style="text;html=1;align=center;verticalAlign=middle;resizable=0;points=[];autosize=1;strokeColor=none;fillColor=none;labelBackgroundColor=none;fontColor=#1A1A1A;" vertex="1" parent="1">
          <mxGeometry x="235" y="148" width="50" height="30" as="geometry" />
        </mxCell>
      </root>
    </mxGraphModel>
  </diagram>
</mxfile>
